PathFileType	4	(X/Y/Z)	D:\telocate\uwb05-Unnamed.trc
DataRate	CameraRate	NumFrames	NumMarkers	Units	OrigDataRate	OrigDataStartFrame	OrigNumFrames
100.00	100.00	      140	0	mm	100.00	2059	      8235
Frame#	Time	
		

2059	20.580				2923.97681	-1900.20764	1167.50049	
2060	20.590				2935.96606	-1894.07910	1169.32800	
2061	20.600				2944.20728	-1889.83936	1168.46216	
2062	20.610				2950.62671	-1886.73071	1167.61646	
2063	20.620				2959.62158	-1882.21338	1168.40906	
2064	20.630				2971.53906	-1875.82349	1169.99451	
2065	20.640				2978.98340	-1871.58313	1169.26721	
2066	20.650				2988.45850	-1866.86316	1169.39783	
2067	20.660				3000.12402	-1860.02673	1171.17041	
2068	20.670				3006.03662	-1857.08020	1169.44031	
2069	20.680				3014.23584	-1851.78186	1169.74390	
2070	20.690				3022.48950	-1846.84705	1170.37451	
2071	20.700				3032.48999	-1840.68823	1171.54736	
2072	20.710				3040.79712	-1835.33362	1171.72644	
2073	20.720				3053.21631	-1827.42480	1173.31165	
2074	20.730				3059.49683	-1823.14099	1172.66162	
2075	20.740				3065.95630	-1818.27539	1171.55566	
2076	20.750				3074.24609	-1812.46729	1171.33594	
2077	20.760				3086.08691	-1804.81702	1173.41711	
2078	20.770				3092.42017	-1799.65381	1172.13599	
2079	20.780				3102.40967	-1792.85571	1172.91577	
2080	20.790				3112.76392	-1785.90564	1173.53674	
2081	20.800				3119.08179	-1780.61694	1171.50525	
2082	20.810				3127.74316	-1774.46753	1171.37585	
2083	20.820				3139.40967	-1765.95776	1172.48425	
2084	20.830				3147.00757	-1759.65979	1170.78259	
2085	20.840				3156.11987	-1752.71814	1170.52075	
2086	20.850				3166.49170	-1744.81958	1170.73267	
2087	20.860				3172.53955	-1739.74194	1168.81873	
2088	20.870				3184.29517	-1730.80603	1170.41980	
2089	20.880				3193.34741	-1723.16650	1169.20557	
2090	20.890				3200.30176	-1716.49487	1167.18994	
2091	20.900				3209.64038	-1709.21082	1167.17273	
2092	20.910				3219.99561	-1700.75366	1167.25232	
2093	20.920				3226.14038	-1694.65747	1164.60559	
2094	20.930				3234.25757	-1687.52808	1164.50586	
2095	20.940				3245.33765	-1678.52393	1164.93506	
2096	20.950				3252.35229	-1671.42529	1163.77808	
2097	20.960				3260.52173	-1663.51990	1162.73340	
2098	20.970				3270.45459	-1654.42151	1163.80688	
2099	20.980				3275.78003	-1648.27258	1162.01172	
2100	20.990				3283.06689	-1641.17493	1161.75293	
2101	21.000				3290.04883	-1633.89026	1160.43640	
2102	21.010				3298.95898	-1625.30615	1160.92114	
2103	21.020				3305.81348	-1616.92224	1160.79272	
2104	21.030				3316.53540	-1607.48010	1163.28186	
2105	21.040				3321.98462	-1600.28113	1160.74524	
2106	21.050				3327.93604	-1593.71643	1160.09155	
2107	21.060				3337.36816	-1583.97986	1160.75903	
2108	21.070				3342.33472	-1577.55884	1159.49060	
2109	21.080				3350.49927	-1569.10144	1160.55579	
2110	21.090				3358.62134	-1561.60095	1161.09839	
2111	21.100				3366.08228	-1553.28198	1161.84070	
2112	21.110				3370.47485	-1546.88220	1160.76770	
2113	21.120				3377.08521	-1539.31372	1161.32507	
2114	21.130				3385.04932	-1530.46765	1162.86035	
2115	21.140				3390.33325	-1523.21313	1162.78235	
2116	21.150				3396.63208	-1515.05798	1164.10986	
2117	21.160				3405.00146	-1505.69897	1166.39465	
2118	21.170				3410.44214	-1498.18896	1166.67468	
2119	21.180				3414.11963	-1490.96631	1165.66846	
2120	21.190				3420.19873	-1482.66553	1166.31128	
2121	21.200				3428.95068	-1472.56812	1169.12415	
2122	21.210				3433.18970	-1464.41919	1167.63599	
2123	21.220				3439.13843	-1455.73853	1168.06323	
2124	21.230				3448.43921	-1445.66504	1170.85889	
2125	21.240				3452.46118	-1438.52673	1169.12122	
2126	21.250				3457.01050	-1431.11523	1169.21118	
2127	21.260				3462.05640	-1422.99976	1168.34583	
2128	21.270				3470.53857	-1413.12195	1171.53430	
2129	21.280				3474.18628	-1405.58716	1170.11877	
2130	21.290				3479.73462	-1397.41504	1170.43042	
2131	21.300				3488.60229	-1386.79089	1172.40479	
2132	21.310				3492.21240	-1378.87805	1172.28809	
2133	21.320				3495.40527	-1371.84778	1170.82776	
2134	21.330				3500.66113	-1363.16248	1171.05737	
2135	21.340				3508.42407	-1353.12036	1172.89343	
2136	21.350				3511.61523	-1345.31641	1170.43188	
2137	21.360				3517.51880	-1334.86255	1169.76770	
2138	21.370				3526.58569	-1323.04651	1172.39648	
2139	21.380				3530.97046	-1313.91748	1170.44897	
2140	21.390				3534.86157	-1304.99072	1168.46497	
2141	21.400				3540.35474	-1295.43237	1166.98584	
2142	21.410				3548.98999	-1283.64221	1169.19238	
2143	21.420				3552.69995	-1274.08167	1165.89392	
2144	21.430				3557.52026	-1264.19141	1163.91296	
2145	21.440				3566.83325	-1251.22852	1165.21704	
2146	21.450				3570.49097	-1241.82446	1162.75891	
2147	21.460				3576.14233	-1231.12415	1161.30066	
2148	21.470				3581.47510	-1220.29419	1159.52246	
2149	21.480				3588.11157	-1207.94592	1159.42700	
2150	21.490				3593.18213	-1198.09558	1157.84229	
2151	21.500				3601.19873	-1186.51953	1156.79639	
2152	21.510				3604.96680	-1177.11914	1154.56262	
2153	21.520				3609.90649	-1166.33594	1153.80664	
2154	21.530				3616.56714	-1155.13928	1152.64575	
2155	21.540				3620.08545	-1145.12231	1151.12122	
2156	21.550				3625.41284	-1135.31726	1150.14685	
2157	21.560				3631.72705	-1124.18994	1150.17078	
2158	21.570				3636.89453	-1113.89233	1150.03784	
2159	21.580				3640.21338	-1104.37744	1148.58118	
2160	21.590				3644.07764	-1094.74097	1147.13965	
2161	21.600				3648.60474	-1084.55237	1146.84705	
2162	21.610				3654.72217	-1073.95032	1146.86877	
2163	21.620				3659.07031	-1064.16821	1146.11938	
2164	21.630				3665.97949	-1053.02246	1146.63684	
2165	21.640				3670.68506	-1043.98743	1146.08301	
2166	21.650				3673.58545	-1035.00696	1145.38123	
2167	21.660				3676.69897	-1027.21045	1144.31421	
2168	21.670				3680.14868	-1018.04236	1143.46326	
2169	21.680				3686.69360	-1007.10168	1144.87939	
2170	21.690				3690.90771	-997.74408	1144.32776	
2171	21.700				3696.22925	-988.01971	1144.98364	
2172	21.710				3702.06616	-979.08313	1145.11560	
2173	21.720				3703.37256	-970.66083	1145.13647	
2174	21.730				3706.82495	-961.93805	1145.75659	
2175	21.740				3709.26147	-953.80029	1144.92908	
2176	21.750				3713.32471	-944.32593	1145.05579	
2177	21.760				3718.40112	-934.04230	1145.21460	
2178	21.770				3721.57764	-924.63794	1145.29297	
2179	21.780				3730.35498	-913.07660	1146.50916	
2180	21.790				3731.17261	-903.91882	1146.46484	
2181	21.800				3733.68872	-895.00610	1146.09485	
2182	21.810				3736.78687	-885.82678	1146.44885	
2183	21.820				3740.27588	-876.02661	1146.08911	
2184	21.830				3744.58813	-866.10822	1146.54199	
2185	21.840				3747.34692	-856.80804	1145.64563	
2186	21.850				3755.42798	-845.11426	1146.78174	
2187	21.860				3755.96143	-835.44470	1146.82410	
2188	21.870				3757.71704	-826.15216	1146.14246	
2189	21.880				3759.30103	-817.93939	1145.66602	
2190	21.890				3761.17236	-808.28937	1145.11633	
2191	21.900				3765.07007	-797.50006	1146.41199	
2192	21.910				3768.74512	-786.62524	1146.59778	
2193	21.920				3771.00781	-776.54187	1146.50854	
2194	21.930				3777.27661	-765.20618	1146.45825	
2195	21.940				3777.68433	-755.33691	1146.39746	
2196	21.950				3778.02832	-745.16718	1145.25537	
2197	21.960				3780.00537	-735.10901	1145.02271	
2198	21.970				3781.59277	-725.30658	1144.11646	
